<?xml version="1.0" encoding="utf-8" standalone="no"?>
<!DOCTYPE svg PUBLIC "-//W3C//DTD SVG 1.1//EN"
  "http://www.w3.org/Graphics/SVG/1.1/DTD/svg11.dtd">
<svg xmlns:xlink="http://www.w3.org/1999/xlink" width="468pt" height="470pt" viewBox="0 0 468 470" xmlns="http://www.w3.org/2000/svg" version="1.1">
 <metadata>
  <rdf:RDF xmlns:dc="http://purl.org/dc/elements/1.1/" xmlns:cc="http://creativecommons.org/ns#" xmlns:rdf="http://www.w3.org/1999/02/22-rdf-syntax-ns#">
   <cc:Work>
    <dc:type rdf:resource="http://purl.org/dc/dcmitype/StillImage"/>
    <dc:format>image/svg+xml</dc:format>
    <dc:creator>
     <cc:Agent>
      <dc:title>Matplotlib v3.11.2, https://matplotlib.org/</dc:title>
     </cc:Agent>
    </dc:creator>
   </cc:Work>
  </rdf:RDF>
 </metadata>
 <defs>
  <style type="text/css">*{stroke-linejoin: round; stroke-linecap: butt}</style>
 </defs>
 <g id="figure_1">
  <g id="patch_1">
   <path d="M 0 470 
L 468 470 
L 468 0 
L 0 0 
z
" style="fill: #ffffff"/>
  </g>
  <g id="axes_1">
   <g id="patch_2">
    <path d="M 79.56 413.6 
L 449.28 413.6 
L 449.28 18.8 
L 79.56 18.8 
z
" style="fill: #ffffff"/>
   </g>
   <g id="matplotlib.axis_1">
    <g id="xtick_1">
     <g id="line2d_1"/>
     <g id="text_1">
      <text style="font-size: 16px; font-family: 'Inter'; text-anchor: middle; fill: #676773" x="79.56" y="433.75625" transform="rotate(-0 79.56 433.75625)">0</text>
     </g>
    </g>
    <g id="xtick_2">
     <g id="line2d_2"/>
     <g id="text_2">
      <text style="font-size: 16px; font-family: 'Inter'; text-anchor: middle; fill: #676773" x="169.008387" y="433.75625" transform="rotate(-0 169.008387 433.75625)">30</text>
     </g>
    </g>
    <g id="xtick_3">
     <g id="line2d_3"/>
     <g id="text_3">
      <text style="font-size: 16px; font-family: 'Inter'; text-anchor: middle; fill: #676773" x="258.456774" y="433.75625" transform="rotate(-0 258.456774 433.75625)">60</text>
     </g>
    </g>
    <g id="xtick_4">
     <g id="line2d_4"/>
     <g id="text_4">
      <text style="font-size: 16px; font-family: 'Inter'; text-anchor: middle; fill: #676773" x="347.905161" y="433.75625" transform="rotate(-0 347.905161 433.75625)">90</text>
     </g>
    </g>
    <g id="xtick_5">
     <g id="line2d_5"/>
     <g id="text_5">
      <text style="font-size: 16px; font-family: 'Inter'; text-anchor: middle; fill: #676773" x="437.353548" y="433.75625" transform="rotate(-0 437.353548 433.75625)">120+</text>
     </g>
    </g>
    <g id="text_6">
     <text style="font-size: 17px; font-family: 'Inter'; text-anchor: middle; fill: #676773" x="264.42" y="454.517344" transform="rotate(-0 264.42 454.517344)">Days from fiscal year end to SEC acceptance</text>
    </g>
   </g>
   <g id="matplotlib.axis_2">
    <g id="ytick_1">
     <g id="line2d_6">
      <path d="M 79.56 413.6 
L 449.28 413.6 
" clip-path="url(#p4ec1ebf40f)" style="fill: none; stroke: #e4e1da; stroke-linecap: square"/>
     </g>
     <g id="line2d_7"/>
     <g id="text_7">
      <text style="font-size: 16px; font-family: 'Inter'; text-anchor: end; fill: #676773" x="71.56" y="419.678125" transform="rotate(-0 71.56 419.678125)">0%</text>
     </g>
    </g>
    <g id="ytick_2">
     <g id="line2d_8">
      <path d="M 79.56 330.643835 
L 449.28 330.643835 
" clip-path="url(#p4ec1ebf40f)" style="fill: none; stroke: #e4e1da; stroke-linecap: square"/>
     </g>
     <g id="line2d_9"/>
     <g id="text_8">
      <text style="font-size: 16px; font-family: 'Inter'; text-anchor: end; fill: #676773" x="71.56" y="336.72196" transform="rotate(-0 71.56 336.72196)">5%</text>
     </g>
    </g>
    <g id="ytick_3">
     <g id="line2d_10">
      <path d="M 79.56 247.687669 
L 449.28 247.687669 
" clip-path="url(#p4ec1ebf40f)" style="fill: none; stroke: #e4e1da; stroke-linecap: square"/>
     </g>
     <g id="line2d_11"/>
     <g id="text_9">
      <text style="font-size: 16px; font-family: 'Inter'; text-anchor: end; fill: #676773" x="71.56" y="253.765794" transform="rotate(-0 71.56 253.765794)">10%</text>
     </g>
    </g>
    <g id="ytick_4">
     <g id="line2d_12">
      <path d="M 79.56 164.731504 
L 449.28 164.731504 
" clip-path="url(#p4ec1ebf40f)" style="fill: none; stroke: #e4e1da; stroke-linecap: square"/>
     </g>
     <g id="line2d_13"/>
     <g id="text_10">
      <text style="font-size: 16px; font-family: 'Inter'; text-anchor: end; fill: #676773" x="71.56" y="170.809629" transform="rotate(-0 71.56 170.809629)">15%</text>
     </g>
    </g>
    <g id="ytick_5">
     <g id="line2d_14">
      <path d="M 79.56 81.775339 
L 449.28 81.775339 
" clip-path="url(#p4ec1ebf40f)" style="fill: none; stroke: #e4e1da; stroke-linecap: square"/>
     </g>
     <g id="line2d_15"/>
     <g id="text_11">
      <text style="font-size: 16px; font-family: 'Inter'; text-anchor: end; fill: #676773" x="71.56" y="87.853464" transform="rotate(-0 71.56 87.853464)">20%</text>
     </g>
    </g>
   </g>
   <g id="patch_3">
    <path d="M 80.752645 413.6 
L 90.293806 413.6 
L 90.293806 407.012231 
L 80.752645 407.012231 
z
" clip-path="url(#p4ec1ebf40f)" style="fill: #6d28a8"/>
   </g>
   <g id="patch_4">
    <path d="M 92.679097 413.6 
L 102.220258 413.6 
L 102.220258 413.6 
L 92.679097 413.6 
z
" clip-path="url(#p4ec1ebf40f)" style="fill: #6d28a8"/>
   </g>
   <g id="patch_5">
    <path d="M 104.605548 413.6 
L 114.14671 413.6 
L 114.14671 413.6 
L 104.605548 413.6 
z
" clip-path="url(#p4ec1ebf40f)" style="fill: #6d28a8"/>
   </g>
   <g id="patch_6">
    <path d="M 116.532 413.6 
L 126.073161 413.6 
L 126.073161 413.227107 
L 116.532 413.227107 
z
" clip-path="url(#p4ec1ebf40f)" style="fill: #6d28a8"/>
   </g>
   <g id="patch_7">
    <path d="M 128.458452 413.6 
L 137.999613 413.6 
L 137.999613 413.351405 
L 128.458452 413.351405 
z
" clip-path="url(#p4ec1ebf40f)" style="fill: #6d28a8"/>
   </g>
   <g id="patch_8">
    <path d="M 140.384903 413.6 
L 149.926065 413.6 
L 149.926065 410.865455 
L 140.384903 410.865455 
z
" clip-path="url(#p4ec1ebf40f)" style="fill: #6d28a8"/>
   </g>
   <g id="patch_9">
    <path d="M 152.311355 413.6 
L 161.852516 413.6 
L 161.852516 405.023471 
L 152.311355 405.023471 
z
" clip-path="url(#p4ec1ebf40f)" style="fill: #6d28a8"/>
   </g>
   <g id="patch_10">
    <path d="M 164.237806 413.6 
L 173.778968 413.6 
L 173.778968 398.932893 
L 164.237806 398.932893 
z
" clip-path="url(#p4ec1ebf40f)" style="fill: #6d28a8"/>
   </g>
   <g id="patch_11">
    <path d="M 176.164258 413.6 
L 185.705419 413.6 
L 185.705419 387.000331 
L 176.164258 387.000331 
z
" clip-path="url(#p4ec1ebf40f)" style="fill: #6d28a8"/>
   </g>
   <g id="patch_12">
    <path d="M 188.09071 413.6 
L 197.631871 413.6 
L 197.631871 353.067107 
L 188.09071 353.067107 
z
" clip-path="url(#p4ec1ebf40f)" style="fill: #6d28a8"/>
   </g>
   <g id="patch_13">
    <path d="M 200.017161 413.6 
L 209.558323 413.6 
L 209.558323 327.959008 
L 200.017161 327.959008 
z
" clip-path="url(#p4ec1ebf40f)" style="fill: #6d28a8"/>
   </g>
   <g id="patch_14">
    <path d="M 211.943613 413.6 
L 221.484774 413.6 
L 221.484774 272.398017 
L 211.943613 272.398017 
z
" clip-path="url(#p4ec1ebf40f)" style="fill: #6d28a8"/>
   </g>
   <g id="patch_15">
    <path d="M 223.870065 413.6 
L 233.411226 413.6 
L 233.411226 244.803967 
L 223.870065 244.803967 
z
" clip-path="url(#p4ec1ebf40f)" style="fill: #6d28a8"/>
   </g>
   <g id="patch_16">
    <path d="M 235.796516 413.6 
L 245.337677 413.6 
L 245.337677 130.32595 
L 235.796516 130.32595 
z
" clip-path="url(#p4ec1ebf40f)" style="fill: #6d28a8"/>
   </g>
   <g id="patch_17">
    <path d="M 247.722968 413.6 
L 257.264129 413.6 
L 257.264129 37.6 
L 247.722968 37.6 
z
" clip-path="url(#p4ec1ebf40f)" style="fill: #6d28a8"/>
   </g>
   <g id="patch_18">
    <path d="M 259.649419 413.6 
L 269.190581 413.6 
L 269.190581 268.047603 
L 259.649419 268.047603 
z
" clip-path="url(#p4ec1ebf40f)" style="fill: #6d28a8"/>
   </g>
   <g id="patch_19">
    <path d="M 271.575871 413.6 
L 281.117032 413.6 
L 281.117032 388.367603 
L 271.575871 388.367603 
z
" clip-path="url(#p4ec1ebf40f)" style="fill: #6d28a8"/>
   </g>
   <g id="patch_20">
    <path d="M 283.502323 413.6 
L 293.043484 413.6 
L 293.043484 374.197686 
L 283.502323 374.197686 
z
" clip-path="url(#p4ec1ebf40f)" style="fill: #6d28a8"/>
   </g>
   <g id="patch_21">
    <path d="M 295.428774 413.6 
L 304.969935 413.6 
L 304.969935 340.015868 
L 295.428774 340.015868 
z
" clip-path="url(#p4ec1ebf40f)" style="fill: #6d28a8"/>
   </g>
   <g id="patch_22">
    <path d="M 307.355226 413.6 
L 316.896387 413.6 
L 316.896387 391.847934 
L 307.355226 391.847934 
z
" clip-path="url(#p4ec1ebf40f)" style="fill: #6d28a8"/>
   </g>
   <g id="patch_23">
    <path d="M 319.281677 413.6 
L 328.822839 413.6 
L 328.822839 381.904132 
L 319.281677 381.904132 
z
" clip-path="url(#p4ec1ebf40f)" style="fill: #6d28a8"/>
   </g>
   <g id="patch_24">
    <path d="M 331.208129 413.6 
L 340.74929 413.6 
L 340.74929 360.524959 
L 331.208129 360.524959 
z
" clip-path="url(#p4ec1ebf40f)" style="fill: #6d28a8"/>
   </g>
   <g id="patch_25">
    <path d="M 343.134581 413.6 
L 352.675742 413.6 
L 352.675742 333.925289 
L 343.134581 333.925289 
z
" clip-path="url(#p4ec1ebf40f)" style="fill: #6d28a8"/>
   </g>
   <g id="patch_26">
    <path d="M 355.061032 413.6 
L 364.602194 413.6 
L 364.602194 407.260826 
L 355.061032 407.260826 
z
" clip-path="url(#p4ec1ebf40f)" style="fill: #6d28a8"/>
   </g>
   <g id="patch_27">
    <path d="M 366.987484 413.6 
L 376.528645 413.6 
L 376.528645 412.854215 
L 366.987484 412.854215 
z
" clip-path="url(#p4ec1ebf40f)" style="fill: #6d28a8"/>
   </g>
   <g id="patch_28">
    <path d="M 378.913935 413.6 
L 388.455097 413.6 
L 388.455097 413.227107 
L 378.913935 413.227107 
z
" clip-path="url(#p4ec1ebf40f)" style="fill: #6d28a8"/>
   </g>
   <g id="patch_29">
    <path d="M 390.840387 413.6 
L 400.381548 413.6 
L 400.381548 412.729917 
L 390.840387 412.729917 
z
" clip-path="url(#p4ec1ebf40f)" style="fill: #6d28a8"/>
   </g>
   <g id="patch_30">
    <path d="M 402.766839 413.6 
L 412.308 413.6 
L 412.308 413.6 
L 402.766839 413.6 
z
" clip-path="url(#p4ec1ebf40f)" style="fill: #6d28a8"/>
   </g>
   <g id="patch_31">
    <path d="M 414.69329 413.6 
L 424.234452 413.6 
L 424.234452 413.475702 
L 414.69329 413.475702 
z
" clip-path="url(#p4ec1ebf40f)" style="fill: #6d28a8"/>
   </g>
   <g id="patch_32">
    <path d="M 426.619742 413.6 
L 436.160903 413.6 
L 436.160903 413.10281 
L 426.619742 413.10281 
z
" clip-path="url(#p4ec1ebf40f)" style="fill: #6d28a8"/>
   </g>
   <g id="line2d_16">
    <path d="M 246.530323 413.6 
L 246.530323 18.8 
" clip-path="url(#p4ec1ebf40f)" style="fill: none; stroke: #16161a; stroke-width: 1.5; stroke-linecap: square"/>
   </g>
   <g id="patch_33">
    <path d="M 79.56 413.6 
L 449.28 413.6 
" style="fill: none; stroke: #e4e1da; stroke-linejoin: miter; stroke-linecap: square"/>
   </g>
   <g id="text_12">
    <text style="font-size: 17px; font-family: 'Inter'; text-anchor: end; fill: #16161a" x="234.603871" y="61.797344" transform="rotate(-0 234.603871 61.797344)">median 56 days</text>
   </g>
   <g id="text_13">
    <text style="font-size: 15px; font-family: 'Inter'; fill: #676773" transform="translate(82.522621 95.619121)">until then the report</text>
    <text style="font-size: 15px; font-family: 'Inter'; fill: #676773" transform="translate(122.450746 113.623223)">is invisible to a</text>
    <text style="font-size: 15px; font-family: 'Inter'; fill: #676773" transform="translate(170.150746 131.627324)">backtest</text>
   </g>
  </g>
 </g>
 <defs>
  <clipPath id="p4ec1ebf40f">
   <rect x="79.56" y="18.8" width="369.72" height="394.8"/>
  </clipPath>
 </defs>
</svg>
